<svg width="24" height="24" viewBox="0 0 24 24" fill="none" xmlns="http://www.w3.org/2000/svg">
<path d="M12.9961 1.99805H5.99609C5.46566 1.99805 4.95695 2.20876 4.58188 2.58383C4.20681 2.95891 3.99609 3.46761 3.99609 3.99805V19.998C3.99609 20.5285 4.20681 21.0372 4.58188 21.4123C4.95695 21.7873 5.46566 21.998 5.99609 21.998H17.9961C18.5265 21.998 19.0352 21.7873 19.4103 21.4123C19.7854 21.0372 19.9961 20.5285 19.9961 19.998V8.99805L12.9961 1.99805Z" stroke="#7755FF" stroke-width="1.71429" stroke-linecap="round" stroke-linejoin="round"/>
<path d="M12.9961 1.99805V8.99805H19.9961" stroke="#7755FF" stroke-width="1.71429" stroke-linecap="round" stroke-linejoin="round"/>
<rect y="14" width="24" height="10" rx="2" fill="#7755FF"/>
<path d="M7.336 22.096C6.84533 22.096 6.456 22.008 6.168 21.832C5.88533 21.6507 5.68533 21.4 5.568 21.08C5.45067 20.7547 5.392 20.3733 5.392 19.936V17.6C5.392 17.152 5.45067 16.768 5.568 16.448C5.68533 16.1227 5.88533 15.872 6.168 15.696C6.456 15.52 6.84533 15.432 7.336 15.432C7.816 15.432 8.18933 15.512 8.456 15.672C8.728 15.8267 8.92 16.0453 9.032 16.328C9.144 16.6107 9.2 16.936 9.2 17.304V17.864H7.8V17.216C7.8 17.088 7.792 16.9653 7.776 16.848C7.76533 16.7307 7.728 16.6347 7.664 16.56C7.6 16.48 7.49067 16.44 7.336 16.44C7.18667 16.44 7.07467 16.48 7 16.56C6.93067 16.64 6.88533 16.7413 6.864 16.864C6.848 16.9813 6.84 17.1067 6.84 17.24V20.288C6.84 20.432 6.85067 20.5653 6.872 20.688C6.89867 20.8053 6.94667 20.9013 7.016 20.976C7.09067 21.0453 7.19733 21.08 7.336 21.08C7.48533 21.08 7.592 21.0427 7.656 20.968C7.72 20.888 7.76 20.7867 7.776 20.664C7.792 20.5413 7.8 20.416 7.8 20.288V19.608H9.2V20.168C9.2 20.536 9.144 20.8667 9.032 21.16C8.92533 21.448 8.736 21.6773 8.464 21.848C8.19733 22.0133 7.82133 22.096 7.336 22.096ZM12.1878 22.096C11.7825 22.096 11.4438 22.024 11.1718 21.88C10.8998 21.736 10.6945 21.5147 10.5558 21.216C10.4171 20.912 10.3398 20.52 10.3238 20.04L11.5478 19.856C11.5531 20.1333 11.5771 20.3573 11.6198 20.528C11.6678 20.6987 11.7318 20.8213 11.8118 20.896C11.8971 20.9707 11.9985 21.008 12.1158 21.008C12.2651 21.008 12.3611 20.9573 12.4038 20.856C12.4518 20.7547 12.4758 20.648 12.4758 20.536C12.4758 20.2693 12.4118 20.0453 12.2838 19.864C12.1558 19.6773 11.9825 19.4907 11.7638 19.304L11.2038 18.816C10.9585 18.608 10.7505 18.3733 10.5798 18.112C10.4145 17.8453 10.3318 17.5173 10.3318 17.128C10.3318 16.5787 10.4945 16.16 10.8198 15.872C11.1451 15.5787 11.5878 15.432 12.1478 15.432C12.4945 15.432 12.7718 15.4907 12.9798 15.608C13.1931 15.7253 13.3531 15.88 13.4598 16.072C13.5718 16.2587 13.6465 16.4587 13.6838 16.672C13.7265 16.88 13.7505 17.08 13.7558 17.272L12.5238 17.424C12.5185 17.232 12.5051 17.0667 12.4838 16.928C12.4678 16.784 12.4305 16.6747 12.3718 16.6C12.3131 16.52 12.2225 16.48 12.0998 16.48C11.9665 16.48 11.8678 16.536 11.8038 16.648C11.7451 16.76 11.7158 16.872 11.7158 16.984C11.7158 17.224 11.7718 17.4213 11.8838 17.576C12.0011 17.7253 12.1531 17.8827 12.3398 18.048L12.8758 18.52C13.1585 18.76 13.3958 19.032 13.5878 19.336C13.7851 19.64 13.8838 20.016 13.8838 20.464C13.8838 20.768 13.8145 21.0453 13.6758 21.296C13.5371 21.5413 13.3398 21.736 13.0838 21.88C12.8331 22.024 12.5345 22.096 12.1878 22.096ZM15.8587 22L14.6907 15.52H15.9147L16.6107 19.92L17.2587 15.52H18.5547L17.3707 22H15.8587Z" fill="white"/>
</svg>
