<svg width="24" height="24" viewBox="0 0 24 24" fill="none" xmlns="http://www.w3.org/2000/svg">
<path d="M12.9961 1.99805H5.99609C5.46566 1.99805 4.95695 2.20876 4.58188 2.58383C4.20681 2.95891 3.99609 3.46761 3.99609 3.99805V19.998C3.99609 20.5285 4.20681 21.0372 4.58188 21.4123C4.95695 21.7873 5.46566 21.998 5.99609 21.998H17.9961C18.5265 21.998 19.0352 21.7873 19.4103 21.4123C19.7854 21.0372 19.9961 20.5285 19.9961 19.998V8.99805L12.9961 1.99805Z" stroke="#7755FF" stroke-width="1.71429" stroke-linecap="round" stroke-linejoin="round"/>
<path d="M12.9961 1.99805V8.99805H19.9961" stroke="#7755FF" stroke-width="1.71429" stroke-linecap="round" stroke-linejoin="round"/>
<rect y="14" width="24" height="10" rx="2" fill="#7755FF"/>
<path d="M2.48 22V15.52H4.12C4.68533 15.52 5.12533 15.592 5.44 15.736C5.75467 15.8747 5.976 16.096 6.104 16.4C6.232 16.6987 6.296 17.088 6.296 17.568V19.92C6.296 20.4053 6.232 20.8027 6.104 21.112C5.976 21.416 5.75467 21.64 5.44 21.784C5.13067 21.928 4.696 22 4.136 22H2.48ZM3.912 21.008H4.136C4.35467 21.008 4.512 20.976 4.608 20.912C4.704 20.848 4.76267 20.752 4.784 20.624C4.81067 20.496 4.824 20.336 4.824 20.144V17.32C4.824 17.128 4.808 16.9733 4.776 16.856C4.74933 16.7387 4.688 16.6533 4.592 16.6C4.496 16.5467 4.34133 16.52 4.128 16.52H3.912V21.008ZM9.5035 22.096C9.01817 22.096 8.63417 22.0107 8.3515 21.84C8.06883 21.6693 7.86617 21.424 7.7435 21.104C7.62083 20.784 7.5595 20.4027 7.5595 19.96V17.552C7.5595 17.104 7.62083 16.7227 7.7435 16.408C7.86617 16.0933 8.06883 15.8533 8.3515 15.688C8.63417 15.5173 9.01817 15.432 9.5035 15.432C9.99417 15.432 10.3808 15.5173 10.6635 15.688C10.9515 15.8533 11.1568 16.0933 11.2795 16.408C11.4022 16.7227 11.4635 17.104 11.4635 17.552V19.96C11.4635 20.4027 11.4022 20.784 11.2795 21.104C11.1568 21.424 10.9515 21.6693 10.6635 21.84C10.3808 22.0107 9.99417 22.096 9.5035 22.096ZM9.5035 21.08C9.65283 21.08 9.76217 21.0427 9.8315 20.968C9.90083 20.8933 9.94617 20.7973 9.9675 20.68C9.98883 20.5627 9.9995 20.4427 9.9995 20.32V17.2C9.9995 17.072 9.98883 16.952 9.9675 16.84C9.94617 16.7227 9.90083 16.6267 9.8315 16.552C9.76217 16.4773 9.65283 16.44 9.5035 16.44C9.36483 16.44 9.26083 16.4773 9.1915 16.552C9.12217 16.6267 9.07683 16.7227 9.0555 16.84C9.03417 16.952 9.0235 17.072 9.0235 17.2V20.32C9.0235 20.4427 9.0315 20.5627 9.0475 20.68C9.06883 20.7973 9.1115 20.8933 9.1755 20.968C9.24483 21.0427 9.35417 21.08 9.5035 21.08ZM14.671 22.096C14.1803 22.096 13.791 22.008 13.503 21.832C13.2203 21.6507 13.0203 21.4 12.903 21.08C12.7857 20.7547 12.727 20.3733 12.727 19.936V17.6C12.727 17.152 12.7857 16.768 12.903 16.448C13.0203 16.1227 13.2203 15.872 13.503 15.696C13.791 15.52 14.1803 15.432 14.671 15.432C15.151 15.432 15.5243 15.512 15.791 15.672C16.063 15.8267 16.255 16.0453 16.367 16.328C16.479 16.6107 16.535 16.936 16.535 17.304V17.864H15.135V17.216C15.135 17.088 15.127 16.9653 15.111 16.848C15.1003 16.7307 15.063 16.6347 14.999 16.56C14.935 16.48 14.8257 16.44 14.671 16.44C14.5217 16.44 14.4097 16.48 14.335 16.56C14.2657 16.64 14.2203 16.7413 14.199 16.864C14.183 16.9813 14.175 17.1067 14.175 17.24V20.288C14.175 20.432 14.1857 20.5653 14.207 20.688C14.2337 20.8053 14.2817 20.9013 14.351 20.976C14.4257 21.0453 14.5323 21.08 14.671 21.08C14.8203 21.08 14.927 21.0427 14.991 20.968C15.055 20.888 15.095 20.7867 15.111 20.664C15.127 20.5413 15.135 20.416 15.135 20.288V19.608H16.535V20.168C16.535 20.536 16.479 20.8667 16.367 21.16C16.2603 21.448 16.071 21.6773 15.799 21.848C15.5323 22.0133 15.1563 22.096 14.671 22.096ZM17.3163 22L18.5723 18.512L17.3723 15.52H18.7243L19.4363 17.272L20.0123 15.52H21.2043L20.0683 18.888L21.3323 22H19.9883L19.1963 20.064L18.5003 22H17.3163Z" fill="white"/>
</svg>
