<svg width="36" height="36" viewBox="0 0 36 36" fill="none" xmlns="http://www.w3.org/2000/svg">
<path d="M26.6638 2.58212L26.8623 2.97847L28.3599 6.96097C28.4775 7.27459 28.725 7.52206 29.0386 7.63972L32.8837 9.08225C34.571 9.71528 35.4777 11.5183 35.0281 13.2242L34.9199 13.5637L33.1311 17.5198C32.9925 17.8248 32.9925 18.1748 33.1311 18.4797L34.8299 22.2186C35.5754 23.8594 34.9416 25.7754 33.4175 26.6638L33.0211 26.8623L29.0386 28.3599C28.725 28.4775 28.4775 28.725 28.3599 29.0386L26.9173 32.8837C26.2843 34.571 24.4813 35.4777 22.7754 35.0281L22.4359 34.9199L18.4797 33.1311C18.1748 32.9925 17.8248 32.9925 17.5198 33.1311L13.781 34.8299C12.1402 35.5754 10.2241 34.9416 9.33581 33.4175L9.13727 33.0211L7.63972 29.0386C7.52206 28.725 7.27459 28.4775 6.96097 28.3599L3.11592 26.9173C1.42859 26.2843 0.521866 24.4813 0.971492 22.7754L1.07967 22.4359L2.86849 18.4797C3.00705 18.1748 3.00705 17.8248 2.86849 17.5198L1.16965 13.781C0.424147 12.1402 1.05793 10.2241 2.58212 9.33581L2.97847 9.13727L6.96097 7.63972C7.27459 7.52206 7.52206 7.27459 7.63972 6.96097L9.08225 3.11592C9.71528 1.42859 11.5183 0.521866 13.2242 0.971492L13.5637 1.07967L17.5198 2.86849C17.8248 3.00705 18.1748 3.00705 18.4797 2.86849L22.2186 1.16965C23.8594 0.424147 25.7754 1.05793 26.6638 2.58212Z" fill="#058F43"/>
<path d="M15.3394 21.4995L23.6153 12.0412C24.0373 11.559 24.7703 11.5102 25.2525 11.9321C25.7347 12.3541 25.7836 13.087 25.3616 13.5693L16.2691 23.9608C15.8271 24.4659 15.0501 24.4917 14.5755 24.0172L10.6787 20.1204C10.2256 19.6673 10.2256 18.9326 10.6787 18.4796C11.1318 18.0265 11.8664 18.0265 12.3195 18.4796L15.3394 21.4995Z" fill="white"/>
</svg>
