<svg width="24" height="24" viewBox="0 0 24 24" fill="none" xmlns="http://www.w3.org/2000/svg">
<path d="M12.9961 1.99805H5.99609C5.46566 1.99805 4.95695 2.20876 4.58188 2.58383C4.20681 2.95891 3.99609 3.46761 3.99609 3.99805V19.998C3.99609 20.5285 4.20681 21.0372 4.58188 21.4123C4.95695 21.7873 5.46566 21.998 5.99609 21.998H17.9961C18.5265 21.998 19.0352 21.7873 19.4103 21.4123C19.7854 21.0372 19.9961 20.5285 19.9961 19.998V8.99805L12.9961 1.99805Z" stroke="#7755FF" stroke-width="1.71429" stroke-linecap="round" stroke-linejoin="round"/>
<path d="M12.9961 1.99805V8.99805H19.9961" stroke="#7755FF" stroke-width="1.71429" stroke-linecap="round" stroke-linejoin="round"/>
<rect y="14" width="24" height="10" rx="2" fill="#7755FF"/>
<path d="M3.104 22.168V21.168C3.248 21.168 3.37067 21.16 3.472 21.144C3.57333 21.128 3.65333 21.0987 3.712 21.056C3.77067 21.008 3.81333 20.9413 3.84 20.856C3.86667 20.7653 3.88 20.6507 3.88 20.512V15.52H5.312V20.576C5.312 20.928 5.26667 21.224 5.176 21.464C5.09067 21.6987 4.93867 21.8747 4.72 21.992C4.50133 22.1093 4.19467 22.168 3.8 22.168H3.104ZM8.46906 22.096C8.06373 22.096 7.72506 22.024 7.45306 21.88C7.18106 21.736 6.97573 21.5147 6.83706 21.216C6.6984 20.912 6.62106 20.52 6.60506 20.04L7.82906 19.856C7.8344 20.1333 7.8584 20.3573 7.90106 20.528C7.94906 20.6987 8.01306 20.8213 8.09306 20.896C8.1784 20.9707 8.27973 21.008 8.39706 21.008C8.5464 21.008 8.6424 20.9573 8.68506 20.856C8.73306 20.7547 8.75706 20.648 8.75706 20.536C8.75706 20.2693 8.69306 20.0453 8.56506 19.864C8.43706 19.6773 8.26373 19.4907 8.04506 19.304L7.48506 18.816C7.23973 18.608 7.03173 18.3733 6.86106 18.112C6.69573 17.8453 6.61306 17.5173 6.61306 17.128C6.61306 16.5787 6.77573 16.16 7.10106 15.872C7.4264 15.5787 7.86906 15.432 8.42906 15.432C8.77573 15.432 9.05306 15.4907 9.26106 15.608C9.4744 15.7253 9.6344 15.88 9.74106 16.072C9.85306 16.2587 9.92773 16.4587 9.96506 16.672C10.0077 16.88 10.0317 17.08 10.0371 17.272L8.80506 17.424C8.79973 17.232 8.7864 17.0667 8.76506 16.928C8.74906 16.784 8.71173 16.6747 8.65306 16.6C8.5944 16.52 8.50373 16.48 8.38106 16.48C8.24773 16.48 8.14906 16.536 8.08506 16.648C8.0264 16.76 7.99706 16.872 7.99706 16.984C7.99706 17.224 8.05306 17.4213 8.16506 17.576C8.2824 17.7253 8.4344 17.8827 8.62106 18.048L9.15706 18.52C9.43973 18.76 9.67706 19.032 9.86906 19.336C10.0664 19.64 10.1651 20.016 10.1651 20.464C10.1651 20.768 10.0957 21.0453 9.95706 21.296C9.8184 21.5413 9.62106 21.736 9.36506 21.88C9.1144 22.024 8.81573 22.096 8.46906 22.096ZM13.1944 22.096C12.7091 22.096 12.3251 22.0107 12.0424 21.84C11.7598 21.6693 11.5571 21.424 11.4344 21.104C11.3118 20.784 11.2504 20.4027 11.2504 19.96V17.552C11.2504 17.104 11.3118 16.7227 11.4344 16.408C11.5571 16.0933 11.7598 15.8533 12.0424 15.688C12.3251 15.5173 12.7091 15.432 13.1944 15.432C13.6851 15.432 14.0718 15.5173 14.3544 15.688C14.6424 15.8533 14.8478 16.0933 14.9704 16.408C15.0931 16.7227 15.1544 17.104 15.1544 17.552V19.96C15.1544 20.4027 15.0931 20.784 14.9704 21.104C14.8478 21.424 14.6424 21.6693 14.3544 21.84C14.0718 22.0107 13.6851 22.096 13.1944 22.096ZM13.1944 21.08C13.3438 21.08 13.4531 21.0427 13.5224 20.968C13.5918 20.8933 13.6371 20.7973 13.6584 20.68C13.6798 20.5627 13.6904 20.4427 13.6904 20.32V17.2C13.6904 17.072 13.6798 16.952 13.6584 16.84C13.6371 16.7227 13.5918 16.6267 13.5224 16.552C13.4531 16.4773 13.3438 16.44 13.1944 16.44C13.0558 16.44 12.9518 16.4773 12.8824 16.552C12.8131 16.6267 12.7678 16.7227 12.7464 16.84C12.7251 16.952 12.7144 17.072 12.7144 17.2V20.32C12.7144 20.4427 12.7224 20.5627 12.7384 20.68C12.7598 20.7973 12.8024 20.8933 12.8664 20.968C12.9358 21.0427 13.0451 21.08 13.1944 21.08ZM16.5059 22V15.52H17.5139L18.8419 18.64V15.52H20.0259V22H19.0579L17.7299 18.64V22H16.5059Z" fill="white"/>
</svg>
