<svg width="24" height="24" viewBox="0 0 24 24" fill="none" xmlns="http://www.w3.org/2000/svg">
<path d="M19 3C20.1046 3 21 3.89543 21 5V19C21 20.1046 20.1046 21 19 21H5C3.89543 21 3 20.1046 3 19V5C3 3.89543 3.89543 3 5 3H9" stroke="#067BF9" stroke-width="1.71429" stroke-linecap="round" stroke-linejoin="round"/>
<path d="M13 10V3.5L16 3" stroke="#067BF9" stroke-width="1.71429" stroke-linecap="round" stroke-linejoin="round"/>
<path d="M11.5 12C12.3284 12 13 11.3284 13 10.5C13 9.67157 12.3284 9 11.5 9C10.6716 9 10 9.67157 10 10.5C10 11.3284 10.6716 12 11.5 12Z" stroke="#067BF9" stroke-width="1.71429" stroke-linecap="round" stroke-linejoin="round"/>
<rect y="14" width="24" height="10" rx="2" fill="#067BF9"/>
<path d="M4.456 22L4.568 15.52H6.104L6.816 19.288L7.584 15.52H9.064L9.176 22H8.16L8.04 17.688L7.288 22H6.384L5.584 17.656L5.488 22H4.456ZM12.3048 22V20.544H10.3128V19.56L12.0008 15.52H13.5528V19.552H14.1528V20.544H13.5528V22H12.3048ZM11.3288 19.552H12.3048V16.856L11.3288 19.552ZM14.9561 22L16.1801 15.52H17.8121L19.0201 22H17.7001L17.4841 20.632H16.5321L16.3081 22H14.9561ZM16.6601 19.776H17.3481L17.0041 17.248L16.6601 19.776Z" fill="white"/>
</svg>
