<svg width="40" height="40" viewBox="0 0 40 40" fill="none" xmlns="http://www.w3.org/2000/svg">
<rect width="40" height="40" rx="20" fill="#F3F3F4"/>
<path d="M28.3385 25.8333C28.3385 26.2754 28.1629 26.6993 27.8504 27.0118C27.5378 27.3244 27.1139 27.5 26.6719 27.5H13.3385C12.8965 27.5 12.4726 27.3244 12.16 27.0118C11.8475 26.6993 11.6719 26.2754 11.6719 25.8333V14.1667C11.6719 13.7246 11.8475 13.3007 12.16 12.9882C12.4726 12.6756 12.8965 12.5 13.3385 12.5H17.5052L19.1719 15H26.6719C27.1139 15 27.5378 15.1756 27.8504 15.4882C28.1629 15.8007 28.3385 16.2246 28.3385 16.6667V25.8333Z" stroke="#494656" stroke-width="1.71429" stroke-linecap="round" stroke-linejoin="round"/>
</svg>
