<svg width="24" height="24" viewBox="0 0 24 24" fill="none" xmlns="http://www.w3.org/2000/svg">
<path d="M19 3C20.1046 3 21 3.89543 21 5V19C21 20.1046 20.1046 21 19 21H5C3.89543 21 3 20.1046 3 19V5C3 3.89543 3.89543 3 5 3H9" stroke="#067BF9" stroke-width="1.71429" stroke-linecap="round" stroke-linejoin="round"/>
<path d="M13 10V3.5L16 3" stroke="#067BF9" stroke-width="1.71429" stroke-linecap="round" stroke-linejoin="round"/>
<path d="M11.5 12C12.3284 12 13 11.3284 13 10.5C13 9.67157 12.3284 9 11.5 9C10.6716 9 10 9.67157 10 10.5C10 11.3284 10.6716 12 11.5 12Z" stroke="#067BF9" stroke-width="1.71429" stroke-linecap="round" stroke-linejoin="round"/>
<rect y="14" width="24" height="10" rx="2" fill="#067BF9"/>
<path d="M4.456 22L4.568 15.52H6.104L6.816 19.288L7.584 15.52H9.064L9.176 22H8.16L8.04 17.688L7.288 22H6.384L5.584 17.656L5.488 22H4.456ZM10.5928 22V15.52H12.7688C13.1581 15.52 13.4781 15.5947 13.7288 15.744C13.9795 15.888 14.1661 16.1013 14.2888 16.384C14.4115 16.6613 14.4728 17 14.4728 17.4C14.4728 17.9013 14.3901 18.2853 14.2248 18.552C14.0595 18.8133 13.8355 18.9947 13.5528 19.096C13.2701 19.1973 12.9528 19.248 12.6008 19.248H12.0248V22H10.5928ZM12.0248 18.248H12.5048C12.6808 18.248 12.8141 18.216 12.9048 18.152C12.9955 18.088 13.0541 17.992 13.0808 17.864C13.1128 17.736 13.1288 17.5733 13.1288 17.376C13.1288 17.2107 13.1155 17.0667 13.0888 16.944C13.0675 16.816 13.0115 16.7147 12.9208 16.64C12.8301 16.5653 12.6888 16.528 12.4968 16.528H12.0248V18.248ZM17.2511 22.12C16.7978 22.12 16.4405 22.0347 16.1791 21.864C15.9231 21.6933 15.7391 21.456 15.6271 21.152C15.5205 20.8427 15.4671 20.488 15.4671 20.088V19.856H16.8031C16.8031 19.8613 16.8031 19.8907 16.8031 19.944C16.8031 19.9973 16.8031 20.0453 16.8031 20.088C16.8031 20.3013 16.8165 20.4747 16.8431 20.608C16.8698 20.7413 16.9178 20.84 16.9871 20.904C17.0565 20.9627 17.1525 20.992 17.2751 20.992C17.3978 20.992 17.4885 20.96 17.5471 20.896C17.6111 20.832 17.6538 20.736 17.6751 20.608C17.6965 20.48 17.7071 20.32 17.7071 20.128C17.7071 19.808 17.6618 19.5653 17.5711 19.4C17.4858 19.2293 17.3045 19.1413 17.0271 19.136C17.0218 19.136 16.9925 19.136 16.9391 19.136C16.8858 19.136 16.8325 19.136 16.7791 19.136V18.216C16.8165 18.216 16.8538 18.216 16.8911 18.216C16.9285 18.216 16.9631 18.216 16.9951 18.216C17.2778 18.216 17.4671 18.1387 17.5631 17.984C17.6591 17.8293 17.7071 17.5893 17.7071 17.264C17.7071 17.0133 17.6725 16.8213 17.6031 16.688C17.5391 16.5547 17.4165 16.488 17.2351 16.488C17.0591 16.488 16.9418 16.5627 16.8831 16.712C16.8298 16.8613 16.8031 17.0533 16.8031 17.288C16.8031 17.3413 16.8031 17.3973 16.8031 17.456C16.8031 17.5093 16.8031 17.5653 16.8031 17.624H15.4671V17.232C15.4671 16.8427 15.5365 16.5147 15.6751 16.248C15.8191 15.976 16.0218 15.7707 16.2831 15.632C16.5498 15.4933 16.8671 15.424 17.2351 15.424C17.6085 15.424 17.9285 15.4907 18.1951 15.624C18.4618 15.7573 18.6671 15.9547 18.8111 16.216C18.9551 16.472 19.0271 16.792 19.0271 17.176C19.0271 17.5547 18.9498 17.872 18.7951 18.128C18.6405 18.384 18.4538 18.5413 18.2351 18.6C18.3845 18.6533 18.5178 18.7387 18.6351 18.856C18.7578 18.9733 18.8538 19.1333 18.9231 19.336C18.9925 19.5333 19.0271 19.7867 19.0271 20.096C19.0271 20.4907 18.9685 20.84 18.8511 21.144C18.7391 21.448 18.5525 21.688 18.2911 21.864C18.0298 22.0347 17.6831 22.12 17.2511 22.12Z" fill="white"/>
</svg>
