<svg width="24" height="25" viewBox="0 0 24 25" fill="none" xmlns="http://www.w3.org/2000/svg">
<path d="M22.7696 21.66L18.3381 17.223C18.3099 17.1947 18.2739 17.1821 18.2434 17.1594C19.702 15.4475 20.5872 13.2305 20.5872 10.8042C20.5872 5.3908 16.2019 1 10.7936 1C5.38528 1 1 5.39077 1 10.8042C1 11.6692 1.123 12.5028 1.33294 13.3019C1.58675 12.9145 2.24468 12 2.638 11.8292C2.59572 11.4927 2.56751 11.1524 2.56751 10.8042C2.56751 6.25658 6.25087 2.56842 10.7944 2.56842C15.3379 2.56842 19.0212 6.25656 19.0212 10.8042C19.0212 14.3786 16.7424 17.4127 13.5643 18.5522C13.4131 19.1976 13.1687 19.8132 12.8358 20.3857C14.466 20.0375 15.9481 19.2893 17.1678 18.2401C17.1905 18.2699 17.203 18.3059 17.2305 18.3341L21.6627 22.7689C21.969 23.077 22.4641 23.077 22.7704 22.7689C23.0767 22.4638 23.0767 21.9666 22.7696 21.66ZM11.2158 12.7679C10.0878 11.6386 8.58765 11.0167 6.99117 11.0167C5.39469 11.0167 3.89534 11.6386 2.76728 12.7679C1.63846 13.8971 1.01726 15.3989 1.01726 16.9971C1.01726 18.5953 1.63846 20.0963 2.76728 21.2263C3.8961 22.3564 5.39624 22.9782 6.99195 22.9782C6.99195 22.9782 6.99195 22.9782 6.99272 22.9782C8.58843 22.9782 10.0886 22.3555 11.2166 21.2263C12.3447 20.0979 12.9659 18.5953 12.9659 16.9971C12.9651 15.3996 12.3438 13.8979 11.2158 12.7679ZM10.1082 20.1174C9.27544 20.9511 8.16855 21.4098 6.99195 21.4098C5.81457 21.4098 4.7069 20.9503 3.87496 20.1174C3.04226 19.2838 2.58398 18.1758 2.58398 16.9971C2.58398 15.8184 3.04226 14.7103 3.87496 13.8768C4.70766 13.0431 5.81378 12.5851 6.99117 12.5851C8.16858 12.5851 9.27544 13.0439 10.1082 13.8768C10.9409 14.7104 11.3991 15.8184 11.3991 16.9971C11.3991 18.1765 10.9409 19.2839 10.1082 20.1174ZM9.73763 14.2485C9.43132 13.9418 8.93624 13.9418 8.62996 14.2485L6.99114 15.889L5.35235 14.2485C5.04606 13.9418 4.55098 13.9418 4.2447 14.2485C3.93839 14.5551 3.93839 15.0507 4.2447 15.3573L5.88347 16.9979L4.2447 18.6384C3.93839 18.945 3.93839 19.4407 4.2447 19.7473C4.39743 19.9002 4.598 19.9771 4.79851 19.9771C4.99907 19.9771 5.19961 19.9002 5.35235 19.7473L6.99114 18.1068L8.62996 19.7473C8.78269 19.9002 8.98323 19.9771 9.18377 19.9771C9.38433 19.9771 9.58487 19.9002 9.73761 19.7473C10.0439 19.4407 10.0439 18.945 9.73761 18.6384L8.09884 16.9979L9.73761 15.3573C10.0431 15.0515 10.0431 14.5551 9.73763 14.2485Z" fill="#494656"/>
</svg>
