<svg width="24" height="24" viewBox="0 0 24 24" fill="none" xmlns="http://www.w3.org/2000/svg">
<path fill-rule="evenodd" clip-rule="evenodd" d="M2.76804 2.768C3.19219 2.34385 3.87988 2.34385 4.30403 2.768L21.232 19.696C21.6562 20.1202 21.6562 20.8078 21.232 21.232C20.8079 21.6562 20.1202 21.6562 19.696 21.232L18.1015 19.6375C16.4292 20.9752 14.308 21.7751 12 21.7751C8.92923 21.7751 6.18915 20.3591 4.39711 18.1444L4.39718 20.6889C4.3972 21.2888 3.91093 21.7751 3.31108 21.7751C2.71124 21.7751 2.22498 21.2888 2.22498 20.689V15.1722C2.22498 14.62 2.67269 14.1722 3.22498 14.1722H8.74156C9.34147 14.1722 9.8278 14.6586 9.8278 15.2585C9.8278 15.8583 9.34162 16.3446 8.74181 16.3447L5.76061 16.3454C7.13456 18.3145 9.41685 19.6028 12 19.6028C13.7078 19.6028 15.284 19.0398 16.5532 18.0892L5.91085 7.4468C5.33063 8.22151 4.89479 9.1106 4.64325 10.0742C4.50362 10.609 4.01012 11.0012 3.46162 10.9327L3.29049 10.9113C2.74295 10.8428 2.34914 10.342 2.47258 9.80417C2.80585 8.35226 3.46246 7.02375 4.36258 5.89851L2.76804 4.304C2.34388 3.87985 2.34388 3.19216 2.76804 2.768ZM19.3568 13.9258C19.4964 13.391 19.9899 12.9988 20.5384 13.0674L20.7096 13.0887C21.2571 13.1572 21.6509 13.658 21.5275 14.1958C21.3657 14.9008 21.1276 15.5767 20.8224 16.2144L19.1629 14.5548C19.2363 14.3491 19.3011 14.1393 19.3568 13.9258ZM20.689 2.22495C21.2888 2.22495 21.7751 2.71121 21.7751 3.31105V8.82777C21.7751 9.38005 21.3274 9.82777 20.7751 9.82777H15.2584C14.6585 9.82777 14.1723 9.34149 14.1723 8.74163C14.1723 8.14179 14.6585 7.65551 15.2584 7.65549L18.24 7.65538C16.8661 5.68581 14.5836 4.39718 12 4.39718C11.1037 4.39718 10.2436 4.55228 9.44515 4.83711L7.78558 3.17761C9.06168 2.56692 10.4909 2.22495 12 2.22495C15.0708 2.22495 17.8109 3.64093 19.603 5.8556L19.6029 3.31108C19.6029 2.71123 20.0891 2.22495 20.689 2.22495Z" fill="#414651"/>
</svg>
