<svg width="24" height="24" viewBox="0 0 24 24" fill="none" xmlns="http://www.w3.org/2000/svg">
<path d="M19 3C20.1046 3 21 3.89543 21 5V19C21 20.1046 20.1046 21 19 21H5C3.89543 21 3 20.1046 3 19V5C3 3.89543 3.89543 3 5 3H9" stroke="#067BF9" stroke-width="1.71429" stroke-linecap="round" stroke-linejoin="round"/>
<path d="M13 10V3.5L16 3" stroke="#067BF9" stroke-width="1.71429" stroke-linecap="round" stroke-linejoin="round"/>
<path d="M11.5 12C12.3284 12 13 11.3284 13 10.5C13 9.67157 12.3284 9 11.5 9C10.6716 9 10 9.67157 10 10.5C10 11.3284 10.6716 12 11.5 12Z" stroke="#067BF9" stroke-width="1.71429" stroke-linecap="round" stroke-linejoin="round"/>
<rect y="14" width="24" height="10" rx="2" fill="#067BF9"/>
<path d="M6.836 22.096C6.35067 22.096 5.96667 22.0107 5.684 21.84C5.40133 21.6693 5.19867 21.424 5.076 21.104C4.95333 20.784 4.892 20.4027 4.892 19.96V17.552C4.892 17.104 4.95333 16.7227 5.076 16.408C5.19867 16.0933 5.40133 15.8533 5.684 15.688C5.96667 15.5173 6.35067 15.432 6.836 15.432C7.32667 15.432 7.71333 15.5173 7.996 15.688C8.284 15.8533 8.48933 16.0933 8.612 16.408C8.73467 16.7227 8.796 17.104 8.796 17.552V19.96C8.796 20.4027 8.73467 20.784 8.612 21.104C8.48933 21.424 8.284 21.6693 7.996 21.84C7.71333 22.0107 7.32667 22.096 6.836 22.096ZM6.836 21.08C6.98533 21.08 7.09467 21.0427 7.164 20.968C7.23333 20.8933 7.27867 20.7973 7.3 20.68C7.32133 20.5627 7.332 20.4427 7.332 20.32V17.2C7.332 17.072 7.32133 16.952 7.3 16.84C7.27867 16.7227 7.23333 16.6267 7.164 16.552C7.09467 16.4773 6.98533 16.44 6.836 16.44C6.69733 16.44 6.59333 16.4773 6.524 16.552C6.45467 16.6267 6.40933 16.7227 6.388 16.84C6.36667 16.952 6.356 17.072 6.356 17.2V20.32C6.356 20.4427 6.364 20.5627 6.38 20.68C6.40133 20.7973 6.444 20.8933 6.508 20.968C6.57733 21.0427 6.68667 21.08 6.836 21.08ZM11.8355 22.096C11.3875 22.096 11.0328 22.0027 10.7715 21.816C10.5155 21.6293 10.3315 21.368 10.2195 21.032C10.1128 20.6907 10.0595 20.2987 10.0595 19.856V17.68C10.0595 17.2213 10.1182 16.824 10.2355 16.488C10.3528 16.152 10.5528 15.8933 10.8355 15.712C11.1235 15.5253 11.5128 15.432 12.0035 15.432C12.4835 15.432 12.8595 15.512 13.1315 15.672C13.4088 15.832 13.6062 16.0533 13.7235 16.336C13.8408 16.6187 13.8995 16.9493 13.8995 17.328V17.744H12.4995V17.216C12.4995 17.0773 12.4888 16.9493 12.4675 16.832C12.4515 16.7147 12.4088 16.6213 12.3395 16.552C12.2755 16.4773 12.1688 16.44 12.0195 16.44C11.8648 16.44 11.7528 16.4827 11.6835 16.568C11.6142 16.648 11.5688 16.7493 11.5475 16.872C11.5315 16.9947 11.5235 17.1227 11.5235 17.256V20.256C11.5235 20.4 11.5368 20.536 11.5635 20.664C11.5955 20.7867 11.6488 20.888 11.7235 20.968C11.8035 21.0427 11.9155 21.08 12.0595 21.08C12.2088 21.08 12.3235 21.04 12.4035 20.96C12.4835 20.88 12.5395 20.776 12.5715 20.648C12.6035 20.52 12.6195 20.384 12.6195 20.24V19.48H12.0355V18.64H13.9075V22H12.9635L12.8835 21.464C12.7982 21.6453 12.6728 21.7973 12.5075 21.92C12.3422 22.0373 12.1182 22.096 11.8355 22.096ZM16.9718 22.096C16.5238 22.096 16.1691 22.0027 15.9078 21.816C15.6518 21.6293 15.4678 21.368 15.3558 21.032C15.2491 20.6907 15.1958 20.2987 15.1958 19.856V17.68C15.1958 17.2213 15.2544 16.824 15.3718 16.488C15.4891 16.152 15.6891 15.8933 15.9718 15.712C16.2598 15.5253 16.6491 15.432 17.1398 15.432C17.6198 15.432 17.9958 15.512 18.2678 15.672C18.5451 15.832 18.7424 16.0533 18.8598 16.336C18.9771 16.6187 19.0358 16.9493 19.0358 17.328V17.744H17.6358V17.216C17.6358 17.0773 17.6251 16.9493 17.6038 16.832C17.5878 16.7147 17.5451 16.6213 17.4758 16.552C17.4118 16.4773 17.3051 16.44 17.1558 16.44C17.0011 16.44 16.8891 16.4827 16.8198 16.568C16.7504 16.648 16.7051 16.7493 16.6838 16.872C16.6678 16.9947 16.6598 17.1227 16.6598 17.256V20.256C16.6598 20.4 16.6731 20.536 16.6998 20.664C16.7318 20.7867 16.7851 20.888 16.8598 20.968C16.9398 21.0427 17.0518 21.08 17.1958 21.08C17.3451 21.08 17.4598 21.04 17.5398 20.96C17.6198 20.88 17.6758 20.776 17.7078 20.648C17.7398 20.52 17.7558 20.384 17.7558 20.24V19.48H17.1718V18.64H19.0438V22H18.0998L18.0198 21.464C17.9344 21.6453 17.8091 21.7973 17.6438 21.92C17.4784 22.0373 17.2544 22.096 16.9718 22.096Z" fill="white"/>
</svg>
