<svg width="24" height="24" viewBox="0 0 24 24" fill="none" xmlns="http://www.w3.org/2000/svg">
<path d="M19 3C20.1046 3 21 3.89543 21 5V19C21 20.1046 20.1046 21 19 21H5C3.89543 21 3 20.1046 3 19V5C3 3.89543 3.89543 3 5 3H9" stroke="#067BF9" stroke-width="1.71429" stroke-linecap="round" stroke-linejoin="round"/>
<path d="M13 10V3.5L16 3" stroke="#067BF9" stroke-width="1.71429" stroke-linecap="round" stroke-linejoin="round"/>
<path d="M11.5 12C12.3284 12 13 11.3284 13 10.5C13 9.67157 12.3284 9 11.5 9C10.6716 9 10 9.67157 10 10.5C10 11.3284 10.6716 12 11.5 12Z" stroke="#067BF9" stroke-width="1.71429" stroke-linecap="round" stroke-linejoin="round"/>
<rect y="14" width="24" height="10" rx="2" fill="#067BF9"/>
<path d="M4.336 22.096C3.85067 22.096 3.46667 22.0107 3.184 21.84C2.90133 21.6693 2.69867 21.424 2.576 21.104C2.45333 20.784 2.392 20.4027 2.392 19.96V17.552C2.392 17.104 2.45333 16.7227 2.576 16.408C2.69867 16.0933 2.90133 15.8533 3.184 15.688C3.46667 15.5173 3.85067 15.432 4.336 15.432C4.82667 15.432 5.21333 15.5173 5.496 15.688C5.784 15.8533 5.98933 16.0933 6.112 16.408C6.23467 16.7227 6.296 17.104 6.296 17.552V19.96C6.296 20.4027 6.23467 20.784 6.112 21.104C5.98933 21.424 5.784 21.6693 5.496 21.84C5.21333 22.0107 4.82667 22.096 4.336 22.096ZM4.336 21.08C4.48533 21.08 4.59467 21.0427 4.664 20.968C4.73333 20.8933 4.77867 20.7973 4.8 20.68C4.82133 20.5627 4.832 20.4427 4.832 20.32V17.2C4.832 17.072 4.82133 16.952 4.8 16.84C4.77867 16.7227 4.73333 16.6267 4.664 16.552C4.59467 16.4773 4.48533 16.44 4.336 16.44C4.19733 16.44 4.09333 16.4773 4.024 16.552C3.95467 16.6267 3.90933 16.7227 3.888 16.84C3.86667 16.952 3.856 17.072 3.856 17.2V20.32C3.856 20.4427 3.864 20.5627 3.88 20.68C3.90133 20.7973 3.944 20.8933 4.008 20.968C4.07733 21.0427 4.18667 21.08 4.336 21.08ZM7.6475 22V15.52H9.8235C10.2128 15.52 10.5328 15.5947 10.7835 15.744C11.0342 15.888 11.2208 16.1013 11.3435 16.384C11.4662 16.6613 11.5275 17 11.5275 17.4C11.5275 17.9013 11.4448 18.2853 11.2795 18.552C11.1142 18.8133 10.8902 18.9947 10.6075 19.096C10.3248 19.1973 10.0075 19.248 9.6555 19.248H9.0795V22H7.6475ZM9.0795 18.248H9.5595C9.7355 18.248 9.86883 18.216 9.9595 18.152C10.0502 18.088 10.1088 17.992 10.1355 17.864C10.1675 17.736 10.1835 17.5733 10.1835 17.376C10.1835 17.2107 10.1702 17.0667 10.1435 16.944C10.1222 16.816 10.0662 16.7147 9.9755 16.64C9.88483 16.5653 9.7435 16.528 9.5515 16.528H9.0795V18.248ZM14.5698 22.096C14.0738 22.096 13.6845 22.016 13.4018 21.856C13.1245 21.6907 12.9298 21.4533 12.8178 21.144C12.7058 20.8293 12.6498 20.4453 12.6498 19.992V15.52H14.0658V20.208C14.0658 20.3413 14.0765 20.4747 14.0978 20.608C14.1191 20.7413 14.1645 20.8507 14.2338 20.936C14.3085 21.0213 14.4205 21.064 14.5698 21.064C14.7245 21.064 14.8365 21.0213 14.9058 20.936C14.9751 20.8507 15.0178 20.7413 15.0338 20.608C15.0551 20.4747 15.0658 20.3413 15.0658 20.208V15.52H16.4898V19.992C16.4898 20.4453 16.4311 20.8293 16.3138 21.144C16.2018 21.4533 16.0071 21.6907 15.7298 21.856C15.4525 22.016 15.0658 22.096 14.5698 22.096ZM19.6009 22.096C19.1956 22.096 18.8569 22.024 18.5849 21.88C18.3129 21.736 18.1076 21.5147 17.9689 21.216C17.8303 20.912 17.7529 20.52 17.7369 20.04L18.9609 19.856C18.9663 20.1333 18.9903 20.3573 19.0329 20.528C19.0809 20.6987 19.1449 20.8213 19.2249 20.896C19.3103 20.9707 19.4116 21.008 19.5289 21.008C19.6783 21.008 19.7743 20.9573 19.8169 20.856C19.8649 20.7547 19.8889 20.648 19.8889 20.536C19.8889 20.2693 19.8249 20.0453 19.6969 19.864C19.5689 19.6773 19.3956 19.4907 19.1769 19.304L18.6169 18.816C18.3716 18.608 18.1636 18.3733 17.9929 18.112C17.8276 17.8453 17.7449 17.5173 17.7449 17.128C17.7449 16.5787 17.9076 16.16 18.2329 15.872C18.5583 15.5787 19.0009 15.432 19.5609 15.432C19.9076 15.432 20.1849 15.4907 20.3929 15.608C20.6063 15.7253 20.7663 15.88 20.8729 16.072C20.9849 16.2587 21.0596 16.4587 21.0969 16.672C21.1396 16.88 21.1636 17.08 21.1689 17.272L19.9369 17.424C19.9316 17.232 19.9183 17.0667 19.8969 16.928C19.8809 16.784 19.8436 16.6747 19.7849 16.6C19.7263 16.52 19.6356 16.48 19.5129 16.48C19.3796 16.48 19.2809 16.536 19.2169 16.648C19.1583 16.76 19.1289 16.872 19.1289 16.984C19.1289 17.224 19.1849 17.4213 19.2969 17.576C19.4143 17.7253 19.5663 17.8827 19.7529 18.048L20.2889 18.52C20.5716 18.76 20.8089 19.032 21.0009 19.336C21.1983 19.64 21.2969 20.016 21.2969 20.464C21.2969 20.768 21.2276 21.0453 21.0889 21.296C20.9503 21.5413 20.7529 21.736 20.4969 21.88C20.2463 22.024 19.9476 22.096 19.6009 22.096Z" fill="white"/>
</svg>
