<svg width="20" height="20" viewBox="0 0 20 20" fill="none" xmlns="http://www.w3.org/2000/svg">
<path d="M18.0019 4.18164V8.54528H13.6383" stroke="#494656" stroke-width="1.45399" stroke-linecap="round" stroke-linejoin="round"/>
<path d="M2.00159 15.8187V11.4551H6.36522" stroke="#494656" stroke-width="1.45399" stroke-linecap="round" stroke-linejoin="round"/>
<path d="M3.82704 7.81699C4.19589 6.77466 4.82277 5.84274 5.6492 5.10821C6.47562 4.37367 7.47465 3.86046 8.55307 3.61645C9.63148 3.37245 10.7541 3.40561 11.8163 3.71283C12.8784 4.02005 13.8454 4.59133 14.627 5.37336L18.0016 8.54427M2.00159 11.4534L5.37613 14.6243C6.15777 15.4063 7.12477 15.9776 8.1869 16.2848C9.24904 16.592 10.3717 16.6252 11.4501 16.3812C12.5285 16.1372 13.5276 15.624 14.354 14.8894C15.1804 14.1549 15.8073 13.223 16.1761 12.1806" stroke="#494656" stroke-width="1.45399" stroke-linecap="round" stroke-linejoin="round"/>
</svg>
