<svg width="48" height="48" viewBox="0 0 48 48" fill="none" xmlns="http://www.w3.org/2000/svg">
<path d="M32.6643 8.58212L32.8628 8.97847L34.3603 12.961C34.478 13.2746 34.7255 13.5221 35.0391 13.6397L38.8842 15.0823C40.5715 15.7153 41.4782 17.5183 41.0286 19.2242L40.9204 19.5637L39.1316 23.5198C38.993 23.8248 38.993 24.1748 39.1316 24.4797L40.8304 28.2186C41.5759 29.8594 40.9421 31.7754 39.4179 32.6638L39.0216 32.8623L35.0391 34.3599C34.7255 34.4775 34.478 34.725 34.3603 35.0386L32.9178 38.8837C32.2848 40.571 30.4818 41.4777 28.7759 41.0281L28.4363 40.9199L24.4802 39.1311C24.1753 38.9925 23.8253 38.9925 23.5203 39.1311L19.7814 40.8299C18.1407 41.5754 16.2246 40.9416 15.3363 39.4175L15.1378 39.0211L13.6402 35.0386C13.5225 34.725 13.2751 34.4775 12.9615 34.3599L9.1164 32.9173C7.42907 32.2843 6.52235 30.4813 6.97198 28.7754L7.08016 28.4359L8.86897 24.4797C9.00754 24.1748 9.00754 23.8248 8.86897 23.5198L7.17014 19.781C6.42464 18.1402 7.05842 16.2241 8.58261 15.3358L8.97896 15.1373L12.9615 13.6397C13.2751 13.5221 13.5225 13.2746 13.6402 12.961L15.0827 9.11592C15.7158 7.42859 17.5188 6.52187 19.2247 6.97149L19.5642 7.07967L23.5203 8.86849C23.8253 9.00705 24.1753 9.00705 24.4802 8.86849L28.2191 7.16965C29.8599 6.42415 31.7759 7.05793 32.6643 8.58212Z" fill="#058F43"/>
<path d="M21.3404 27.4995L29.6163 18.0412C30.0383 17.559 30.7712 17.5102 31.2535 17.9321C31.7357 18.3541 31.7846 19.087 31.3626 19.5693L22.27 29.9608C21.8281 30.4659 21.0511 30.4917 20.5765 30.0172L16.6797 26.1204C16.2266 25.6673 16.2266 24.9326 16.6797 24.4796C17.1328 24.0265 17.8674 24.0265 18.3205 24.4796L21.3404 27.4995Z" fill="white"/>
</svg>
