<svg width="24" height="24" viewBox="0 0 24 24" fill="none" xmlns="http://www.w3.org/2000/svg">
<path d="M12.9961 1.99805H5.99609C5.46566 1.99805 4.95695 2.20876 4.58188 2.58383C4.20681 2.95891 3.99609 3.46761 3.99609 3.99805V19.998C3.99609 20.5285 4.20681 21.0372 4.58188 21.4123C4.95695 21.7873 5.46566 21.998 5.99609 21.998H17.9961C18.5265 21.998 19.0352 21.7873 19.4103 21.4123C19.7854 21.0372 19.9961 20.5285 19.9961 19.998V8.99805L12.9961 1.99805Z" stroke="#7755FF" stroke-width="1.71429" stroke-linecap="round" stroke-linejoin="round"/>
<path d="M12.9961 1.99805V8.99805H19.9961" stroke="#7755FF" stroke-width="1.71429" stroke-linecap="round" stroke-linejoin="round"/>
<rect y="14" width="24" height="10" rx="2" fill="#7755FF"/>
<path d="M6.564 22V16.584H5.588V15.52H8.972V16.584H8.004V22H6.564ZM9.5985 22L10.8545 18.512L9.6545 15.52H11.0065L11.7185 17.272L12.2945 15.52H13.4865L12.3505 18.888L13.6145 22H12.2705L11.4785 20.064L10.7825 22H9.5985ZM15.2037 22V16.584H14.2277V15.52H17.6117V16.584H16.6437V22H15.2037Z" fill="white"/>
</svg>
