<svg width="24" height="24" viewBox="0 0 24 24" fill="none" xmlns="http://www.w3.org/2000/svg">
<path d="M19 3C20.1046 3 21 3.89543 21 5V19C21 20.1046 20.1046 21 19 21H5C3.89543 21 3 20.1046 3 19V5C3 3.89543 3.89543 3 5 3H9" stroke="#067BF9" stroke-width="1.71429" stroke-linecap="round" stroke-linejoin="round"/>
<path d="M13 10V3.5L16 3" stroke="#067BF9" stroke-width="1.71429" stroke-linecap="round" stroke-linejoin="round"/>
<path d="M11.5 12C12.3284 12 13 11.3284 13 10.5C13 9.67157 12.3284 9 11.5 9C10.6716 9 10 9.67157 10 10.5C10 11.3284 10.6716 12 11.5 12Z" stroke="#067BF9" stroke-width="1.71429" stroke-linecap="round" stroke-linejoin="round"/>
<rect y="14" width="24" height="10" rx="2" fill="#067BF9"/>
<path d="M5.5 22L4.716 15.52H5.932L6.316 19.296L6.804 15.528H7.756L8.268 19.272L8.66 15.52H9.86L9.084 22H7.836L7.284 18.088L6.764 22H5.5ZM10.5543 22L11.7783 15.52H13.4103L14.6183 22H13.2983L13.0823 20.632H12.1303L11.9063 22H10.5543ZM12.2583 19.776H12.9463L12.6023 17.248L12.2583 19.776ZM16.3665 22L15.1985 15.52H16.4225L17.1185 19.92L17.7665 15.52H19.0625L17.8785 22H16.3665Z" fill="white"/>
</svg>
