<svg width="24" height="24" viewBox="0 0 24 24" fill="none" xmlns="http://www.w3.org/2000/svg">
<path d="M12.9961 1.99805H5.99609C5.46566 1.99805 4.95695 2.20876 4.58188 2.58383C4.20681 2.95891 3.99609 3.46761 3.99609 3.99805V19.998C3.99609 20.5285 4.20681 21.0372 4.58188 21.4123C4.95695 21.7873 5.46566 21.998 5.99609 21.998H17.9961C18.5265 21.998 19.0352 21.7873 19.4103 21.4123C19.7854 21.0372 19.9961 20.5285 19.9961 19.998V8.99805L12.9961 1.99805Z" stroke="#7755FF" stroke-width="1.71429" stroke-linecap="round" stroke-linejoin="round"/>
<path d="M12.9961 1.99805V8.99805H19.9961" stroke="#7755FF" stroke-width="1.71429" stroke-linecap="round" stroke-linejoin="round"/>
<rect y="14" width="24" height="10" rx="2" fill="#7755FF"/>
<path d="M3.056 22L4.312 18.512L3.112 15.52H4.464L5.176 17.272L5.752 15.52H6.944L5.808 18.888L7.072 22H5.728L4.936 20.064L4.24 22H3.056ZM8.07719 22V15.52H9.50919V21.032H10.9972V22H8.07719ZM13.7616 22.096C13.3562 22.096 13.0176 22.024 12.7456 21.88C12.4736 21.736 12.2682 21.5147 12.1296 21.216C11.9909 20.912 11.9136 20.52 11.8976 20.04L13.1216 19.856C13.1269 20.1333 13.1509 20.3573 13.1936 20.528C13.2416 20.6987 13.3056 20.8213 13.3856 20.896C13.4709 20.9707 13.5722 21.008 13.6896 21.008C13.8389 21.008 13.9349 20.9573 13.9776 20.856C14.0256 20.7547 14.0496 20.648 14.0496 20.536C14.0496 20.2693 13.9856 20.0453 13.8576 19.864C13.7296 19.6773 13.5562 19.4907 13.3376 19.304L12.7776 18.816C12.5322 18.608 12.3242 18.3733 12.1536 18.112C11.9882 17.8453 11.9056 17.5173 11.9056 17.128C11.9056 16.5787 12.0682 16.16 12.3936 15.872C12.7189 15.5787 13.1616 15.432 13.7216 15.432C14.0682 15.432 14.3456 15.4907 14.5536 15.608C14.7669 15.7253 14.9269 15.88 15.0336 16.072C15.1456 16.2587 15.2202 16.4587 15.2576 16.672C15.3002 16.88 15.3242 17.08 15.3296 17.272L14.0976 17.424C14.0922 17.232 14.0789 17.0667 14.0576 16.928C14.0416 16.784 14.0042 16.6747 13.9456 16.6C13.8869 16.52 13.7962 16.48 13.6736 16.48C13.5402 16.48 13.4416 16.536 13.3776 16.648C13.3189 16.76 13.2896 16.872 13.2896 16.984C13.2896 17.224 13.3456 17.4213 13.4576 17.576C13.5749 17.7253 13.7269 17.8827 13.9136 18.048L14.4496 18.52C14.7322 18.76 14.9696 19.032 15.1616 19.336C15.3589 19.64 15.4576 20.016 15.4576 20.464C15.4576 20.768 15.3882 21.0453 15.2496 21.296C15.1109 21.5413 14.9136 21.736 14.6576 21.88C14.4069 22.024 14.1082 22.096 13.7616 22.096ZM16.1444 22L17.4004 18.512L16.2004 15.52H17.5524L18.2644 17.272L18.8404 15.52H20.0324L18.8964 18.888L20.1604 22H18.8164L18.0244 20.064L17.3284 22H16.1444Z" fill="white"/>
</svg>
